<svg xmlns="http://www.w3.org/2000/svg" width="26" height="26"><path fill="#1E4795" d="M0 0h26v26H0z"/><path fill="#466FB0" d="M1.1 1H25v23.9H1.1z"/><g fill="#FFF"><path d="M21.8 6.4c.1 0 .1.1.2.2v.3l-.2.3c0 .1-.1.1-.2.2h-.3l-.7-.4v.8c0 .1 0 .2-.1.2h-.7c-.1 0-.2 0-.2-.1-.1-.1-.1-.1-.1-.2v-.8l-.7.4c-.1 0-.2.1-.3 0-.1 0-.2-.1-.2-.2l-.2-.3c0-.1-.1-.2 0-.3 0-.1.1-.2.2-.2L19 6l-.7-.4c-.1 0-.1-.1-.2-.2v-.3l.2-.3c0-.1.1-.1.2-.2h.3l.7.4v-.7c0-.1 0-.2.1-.2.1-.1.1-.1.2-.1h.4c.1 0 .2 0 .2.1.1.1.1.1.1.2v.8l.7-.4c.1 0 .2-.1.3 0 .1 0 .2.1.2.2l.2.3c0 .1.1.2 0 .3s-.1.2-.2.2l-.6.3.7.4zM14.8 8.2c.2-.1.4-.2.7-.2.3 0 .5.1.7.3.2.2.3.4.3.7 0 .3-.1.5-.3.7l2 2c.2.2.3.4.3.7 0 .3-.1.5-.3.7-2.6.2-4.7 1-6.1 2.2-.1.3-.2.5-.1.8 0 .3.2.5.4.7.2.2.4.3.7.3 0 .2.1.3.2.5l.3.3c.1.1.3.1.5.1h.5c.2 0 .3 0 .6-.1.1.3.1.6-.1 1s-.5.7-.8.9c-.3.2-.7.4-1 .4-.1-.1-.3-.2-.6-.3-.3-.1-.5-.3-.7-.3-.1-.1-.3-.2-.6-.3-.2-.2-.4-.3-.6-.4l-.5-.5c-.2-.2-.3-.4-.5-.7l-.7.3c-.2.2-.5.3-.8.3-.3 0-.6-.1-.8-.3l-1-1c-.2-.2-.3-.5-.3-.8s.1-.6.3-.8L9 12.9c1.5-1.5 2.4-3.7 2.6-6.6.1-.2.3-.3.6-.3s.5.1.7.3l1.9 1.9zm2.5 3.8l-4.9-4.9c-.3 2.4-1 4.3-2.2 5.7l1.4 1.4c1.4-1.1 3.3-1.9 5.7-2.2z"/></g></svg>