<?xml version="1.0" encoding="utf-8"?>
<!-- Generator: Adobe Illustrator 13.0.0, SVG Export Plug-In . SVG Version: 6.00 Build 14948)  -->
<!DOCTYPE svg PUBLIC "-//W3C//DTD SVG 1.1//EN" "http://www.w3.org/Graphics/SVG/1.1/DTD/svg11.dtd" [
	<!ENTITY ns_flows "http://ns.adobe.com/Flows/1.0/">
	<!ENTITY ns_extend "http://ns.adobe.com/Extensibility/1.0/">
	<!ENTITY ns_ai "http://ns.adobe.com/AdobeIllustrator/10.0/">
	<!ENTITY ns_graphs "http://ns.adobe.com/Graphs/1.0/">
]>
<svg version="1.1" id="Calque_1" xmlns:x="&ns_extend;" xmlns:i="&ns_ai;" xmlns:graph="&ns_graphs;"
	 xmlns="http://www.w3.org/2000/svg" xmlns:xlink="http://www.w3.org/1999/xlink" xmlns:a="http://ns.adobe.com/AdobeSVGViewerExtensions/3.0/"
	 x="0px" y="0px" width="26px" height="26px" viewBox="0 0 26 26" enable-background="new 0 0 26 26" xml:space="preserve">
<path fill="#1E4795" d="M0,0h26v26H0V0z"/>
<path fill="#466FB0" d="M1.1,1H25v23.9H1.1V1z"/>
<g>
	<path fill="#FFFFFF" d="M8.6,18.3l-0.8-0.8c-0.2-0.2-0.4-0.5-0.4-0.8c0-0.3,0.1-0.6,0.3-0.8l4.7-4.7h-4c-0.3,0-0.6-0.1-0.9-0.4
		c-0.3-0.3-0.4-0.5-0.4-0.9v-1c0-0.3,0.1-0.6,0.4-0.9C7.7,7.6,8,7.4,8.4,7.4h8.8c0.3,0,0.6,0.1,0.8,0.4c0.2,0.2,0.4,0.5,0.4,0.8v8.9
		c0,0.3-0.1,0.6-0.4,0.9c-0.2,0.2-0.5,0.4-0.9,0.4h-1c-0.3,0-0.6-0.1-0.9-0.4c-0.2-0.2-0.4-0.5-0.4-0.9v-4l-4.7,4.7
		c-0.2,0.2-0.5,0.4-0.8,0.3C9.2,18.7,8.9,18.5,8.6,18.3z"/>
</g>
</svg>
