<svg xmlns="http://www.w3.org/2000/svg" width="26" height="26"><path fill="#8D141A" d="M0 0h26v26H0z"/><path fill="#C03638" d="M1.1 1H25v23.9H1.1z"/><g><path fill="#FFF" d="M20 17.5v1c0 .1 0 .3-.1.4s-.2.1-.4.1h-13c-.1 0-.3 0-.4-.1-.1-.1-.1-.3-.1-.4v-1c0-.1 0-.3.1-.4.1-.1.3-.1.4-.1h13c.1 0 .3 0 .4.1.1.1.1.3.1.4zm0-3v1c0 .1 0 .3-.1.4s-.2.1-.4.1h-13c-.1 0-.3 0-.4-.1-.1-.2-.1-.3-.1-.4v-1c0-.1 0-.3.1-.4.1-.1.3-.1.4-.1h13c.1 0 .3.1.4.1.1.1.1.2.1.4zm0-3v1c0 .1 0 .3-.1.4-.1.1-.2.1-.4.1h-13c-.1 0-.3 0-.4-.1-.1-.2-.1-.3-.1-.4v-1c0-.1 0-.3.1-.4.1-.1.3-.1.4-.1h13c.1 0 .3 0 .4.1.1.1.1.2.1.4zm0-3v1c0 .1 0 .3-.1.4-.1.1-.2.1-.4.1h-13c-.1 0-.3 0-.4-.1-.1-.2-.1-.3-.1-.4v-1c0-.1 0-.3.1-.4.1-.1.3-.1.4-.1h13c.1 0 .3 0 .4.1.1.1.1.2.1.4z"/></g></svg>