<svg xmlns="http://www.w3.org/2000/svg" width="259" height="32"><path fill="#FFF" d="M51.4 3.9l-.1.1v.2h.4l.1-.2h-.1l-.1-.2v-.3l-.2.1-.1.1v.1h.1v.1zm-.2.1v-.1H50.9l-.1.2v.1h.1l.3-.2zm-3.6.6l-.2.1v.1h.1v-.2l.1.1v-.1zm-.6.2v.1-.1h.1-.1zm8 3c0-.2 0-.4-.1-.6 0-.7-.2-1.3-.5-1.9v-.1c-.3-.7-.7-1.4-1.3-2-.1-.2-.2-.3-.3-.4C51.5 1.7 49.8 1 48 1c-1.8 0-3.5.7-4.7 1.8l-.8.8C41.6 4.9 41 6.4 41 8c0 3.8 3.1 7 6.9 7 2.7 0 5-1.5 6.2-3.8l.6-1.5c.1-.1.1-.2.1-.4 0-.4.1-.8.1-1.2.1-.2.1-.3.1-.3zM53.7 5c.1 0 .1.1.2.2h-.1l-.1-.2zm-1-1.2v-.2l.3.3-.1.2h-.4V4l.2-.2zm-8.4-.7h.1V3h.2v.2h-.3v-.1zm.4.4h-.3v-.1l.2-.1h.1v.2zm9.5 2.6h-.5l-.3-.2-.4.1v.2h-.1l-.1-.2-.5-.2v-.3l-.7.1-.2.1H51l-.3.2v.3l-.7.5v.4l-.1.1v.5l.6.7h.2v.1h.5l.1-.1h.2l.1.1h.4l-.1.5.5.8-.2.3v.2l.2.2v.5l.2.3v.4h.2c-1.1 1.4-2.9 2.4-4.9 2.4-3.5 0-6.4-2.8-6.4-6.4 0-.9.1-1.7.5-2.5l.5-.2c.1-.1.1-.3.2-.4v.1l-.2.3-.2.2v.5l.2.1v.5l.2.4h.2v-.1l-.2-.3V6h.1v.3l.3.5-.1.1.2.3.8.4v-.1h.1v.1H44.4l.3.5h.5v.4l-.3.2v.5l.5.6v.2h.2l.3.2v1.1l.1.1-.1.5.2.3v.5l.3.5.3.3h.3l.1-.1-.2-.2v-.1l.1-.1v-.1h-.2l.2.2.1-.1v-.1l-.1-.2v-.1h.2l.3-.1.1-.2.4-.5v-.6l.1-.2h.4l.2-.2.1-.8.2-.3v-.2l-.2-.1-.1-.2h-.6l-.3-.2v-.3l-.1-.2h-.4l-.3-.6-.2-.1v.1h-.3l-.1-.2-.4-.1-.3.4-.5-.1-.2-.6h-.3l.1-.1-.1-.2-.5.3-.3-.1-.1-.2v-.3l.2-.3.3-.2h.7v.2l.4.2v-.4l.3-.2.3-.2v-.3l.3-.4.4-.2.3-.3.1.1h.1l.1-.1h-.1l-.1-.1v-.1h.2l.1.1h.2v-.1h.1v.1l-.1.1v.1l.3.1h.1V4.5l.2-.1v-.3l-.2-.2v-.3l-.3.1h-.1l.1-.2-.5-.1-.2.1v.4l-.4.1-.1.3h-.2v-.4H46l-.1-.1-.1-.2.6-.3.2-.1v.2h.1v-.1h.1v-.2h.2l.1-.1.4-.1.3.1-.5.3.6.1.1-.2h.2l.1-.1-.1-.1v-.2l-.5-.3-.4.1-.3.1V3h-.3l-.1-.1.2-.2h-.5l-.1.1.1.1V3h-.2v.1h-.3v-.2h.2l.2-.2-.1-.1-.1.1h-.2l-.2-.3h-.3l-.4.3h.3v.1h-.1.3l.1.2h-.4v-.1l-.2-.1-.1-.1h-.3c1-.8 2.4-1.2 3.7-1.2 1.6 0 3.1.6 4.2 1.6v.1l-.4.2-.1.1v.1h.1l.1.2.2-.1V4h-.5l-.2.3-.3.1v.2h.1v.1h-.7l-.1.1.1.3.1.1h.5v-.1l.4-.1h.2l.2-.1V5l.5.3v.1h-.2l.1.1h.2v-.1h.1l-.1-.1-.3-.2-.1-.2h.2l.1.1.4.1v.3l.2.2.1-.3.1-.1v.3l.2.1h.4c.1.2.2.3.2.5zm-9.3-2l.2-.1h.1v.2l-.2.1-.1-.2zm.9.5l-.4.1-.1-.1v-.1l.1-.1h.2v.1l.2.1zm.2.2v.1h-.2v-.2l.2.1zm-.1-.1v-.1.1zm0 .3l-.1.2h-.1v-.1h.2zm-.6-.1l.1-.1h.2l-.2.3h-.1v-.2zm1 .1v.1h-.2L46 5v-.1l.3.1zm-.2-.2h.1-.1zm8.2 1.7v.1-.1zM76.8 8.7l-.1-.2c-.2-.3-.3-.5-.6-.7-.2-.2-.5-.3-.7-.4.6-.3 1.1-.7 1.3-1.3.2-.5-.1-.8-.1-1.2v.2c0-.4-.6-.7-1.1-.8h-1l-.7.2.2-.5c.2-.7.2-1.3-.2-1.8v-.1c-.3-.5-.8-.8-1.4-1-.6-.2-1.2-.1-1.7.2-.6.4-1.1.8-1.1 1.4v.1l-.1.1-.1-.1-.2-.4c-.3-.5-.8-.8-1.3-1-.5-.1-.8-.1-1.2.2-.5.3-.7.7-.8 1.2-.1.6 0 1.1.3 1.7l.2.2-.5-.2c-.6-.2-1.2-.1-1.8.3-.6.3-1 .7-1.2 1.3-.2.6-.2 1.1.1 1.6.1.2.3.4.5.5.3.3.6.4.9.5l.2.1-.3.3c-.3.3-.5.6-.6.9-.1.4-.1.7.2 1.1.1.2.2.3.4.4.2.2.4.3.6.3.5.1.9.1 1.4 0l-.3.5v-.1c-.2.7-.2 1.2.2 1.8.2.2.3.4.5.6.3.2.6.4.9.5.6.2 1.2.2 1.8-.2.6-.3.9-.8 1.1-1.4v-.1c.4.4.8.7 1.2.8.4.1.8.1 1.2-.2.4-.2.6-.6.7-1 .1-.5.1-.9 0-1.4.2.2.4.3.7.3.7.2 1.2.2 1.8-.1.6-.3.9-.8 1.1-1.4-.1-.5-.1-1.1-.4-1.7zm-3-3.3l.3-.1c.4-.2.7-.2 1.1-.2s.6.2.7.5l.1.3-.1.2c-.2.4-.5.7-1 .9-.2.1-.4.2-.7.2l-2.5.3v-.2l-.1-.1.1-.1 2.1-1.7zm-3.4-2.5c.1-.4.4-.7.8-.9.4-.2.8-.3 1.2-.1.3.1.6.3.8.7.1.2.2.5.2.7l-.1.5-.3.6-1.8 2.2c-.2-.2-.4-.3-.6-.4L70.4 4V2.9zM67 3c0-.4.2-.6.4-.8.1-.1.3-.1.5 0 .4.1.7.4.9.9.1.2.2.4.3.7l.4 2.4-.3.1-1.8-2-.1-.2c-.3-.4-.4-.7-.3-1.1zm-3 4.2c-.2-.3-.2-.6-.1-.9.2-.4.4-.7.8-.9.4-.2.7-.3 1.2-.2l.6.2 1.8 1.3c-.2.3-.3.5-.4.7l-2.9.3h-.2c-.4-.1-.7-.2-.8-.5zm5.7 5.9l-.1.2c-.2.4-.4.7-.8.8-.4.2-.8.3-1.1.1-.4-.1-.7-.4-.9-.7-.1-.2-.2-.5-.2-.7l.1-.5.3-.6 1.7-2c.2.1.5.2.7.2.1.7.3 1.4.3 2.2v1zm-.8-4c-.3-.3-.4-.6-.4-1s.2-.7.4-1c.3-.2.6-.4 1-.4s.7.2.9.4c.3.3.4.6.4 1s-.1.7-.4 1c-.3.3-.6.4-.9.4s-.7-.2-1-.4zm3.8 3.5c-.1.4-.2.6-.4.7-.2.1-.3.1-.5.1-.4-.1-.7-.4-.9-.9l-.3-.7-.3-1.7.4-.1.3-.1.9.9.5.7.1.2c.1.2.2.5.2.9zm3.4-2.3c-.1.4-.4.7-.7.9-.4.2-.7.3-1.1.1-.3 0-.4-.2-.6-.3l-2.1-1.7.2-.3.1-.3 2.3-.2h1c.3.1.6.3.8.6.2.2.3.5.3.9l-.2.3zM253.7 10c1.6.7 3.2 2 3.9 3.5-.9.6-1 .7-2 1.5-1-1.7-2.1-2.7-3.7-3.1-1 1.1-2.5 2.4-4.9 3-.5-1-.7-1.3-1-2.1 1.9-.4 2.6-1 3.5-2.6-.1-2 .5-4 1.9-4.8.8.2 1.9.9 2.2 1-.1.2.1.4.7.5.4.1 1.5.2 2.5-.6.6.9 1.1 1.7 1.1 1.7s-1.9 1.8-4.2 1.3c.1.3 0 .4 0 .7zm.3-5c-1.2 0-2.1-.9-2.1-2s1-2 2.1-2c1.2 0 2.1.9 2.1 2 .1 1.1-.9 2-2.1 2zM237.6 5c-.4.1-4.2 3.6-4.5 4.5-.1.3 0 3.1.1 3.6.2.1 2 0 2.4.1l-.1.9h-3.9c-.7 0-2.8.1-3.4.1l.1-.9c.4 0 1.9.1 2.2-.4.1-.1.1-2.9.1-3.4-.1-.5-3.4-5.4-4.3-6.2H224V2h7.5v1.2h-2.2c1 1.8 2.5 3.9 3.1 4.9l3-3.3h-1.8l-.2-1.2h6.6l-.1.1-.5.8-.2.4H238c-.1 0-.3.1-.4.1zM219.7 2.7c-.5.7-1.1 1.3-1.8 1.8V5c0 .9-.1 1.9-.4 2.8-.3.9-.7 1.8-1.3 2.7s-1.2 1.6-2 2.3-1.7 1.2-2.8 1.6c-1.1.4-2.3.6-3.5.6-2 0-3.8-.5-5.4-1.6h.9c1.6 0 3.1-.5 4.4-1.5-.8 0-1.4-.2-2.1-.7-.6-.5-1-1-1.2-1.7.2 0 .5.1.7.1.3 0 .6 0 .9-.1-.8-.2-1.5-.6-2-1.2s-.8-1.4-.8-2.2c.5.3 1 .4 1.6.4-.5-.3-.9-.7-1.1-1.3-.3-.5-.4-1.1-.4-1.7 0-.6.2-1.2.5-1.8.9 1.1 2 2 3.2 2.6 1.3.7 2.6 1 4.1 1.1-.1-.3-.1-.5-.1-.8 0-1 .3-1.8 1-2.5s1.5-1 2.5-1 1.9.4 2.6 1.1c.8-.2 1.5-.4 2.2-.9-.3.8-.8 1.5-1.6 1.9.6 0 1.3-.2 1.9-.5zM194.2 6.8c.6-.6 1.2-1.4 1.1-2.4 0-1.9-1.5-3.3-3.5-3.2-1.7.2-3 1.6-2.9 3.4.1.5.2.9.4 1.3.2.3.6.6.7.9-1.7.6-3.5 2.5-3.7 4.8-.1 1.1.5 1.4 1.2 1.7.4 1.3 2 1.5 3.8 1.6 2.3.1 4.9-.2 5.5-1.6.7-.1 1.1-.8 1.1-1.6.1-2.5-1.9-4.4-3.7-4.9zm-5.7-.4c-.2-.2-.5-.3-.8-.4.1-.2.3-.2.4-.5 0-.1-.1-.2-.1-.4-.1-.7-.1-1.5.1-2.1-.7-1.1-2.6-1.1-3.4-.2-.8.8-.7 2.5.2 3.3-1.2.3-2.4 1.7-2.5 3.3-.1.7.3 1.1.8 1.2.2.8 1.2 1 2.3 1.1-.1-2.7 1.4-4 3-5.3zM172.5 9.6c0-.3 0-.6-.2-.9-.1-.3-.3-.5-.5-.6-.2-.2-.4-.3-.7-.5-.3-.1-.5-.3-.8-.3-.3 0-.5-.2-.8-.2l-1-.2c-.2 0-.3 0-.4-.1-.1 0-.2 0-.3-.1-.1 0-.2-.1-.3-.1 0-.1-.1-.1-.2-.2v-.3c0-.5.5-.7 1.3-.7.3 0 .5.1.7.1.2.1.4.2.5.3.1.1.3.2.4.3.1.1.3.2.3.3.2.1.3.1.5.1.3 0 .5-.1.7-.3.2-.2.3-.5.3-.7 0-.4-.2-.7-.5-.9-.4-.3-.8-.5-1.3-.6-.5-.1-1.1-.2-1.7-.2-.4 0-.8 0-1.2.1s-.8.3-1.1.5c-.4.2-.6.5-.8.8-.2.4-.3.8-.3 1.2 0 .4 0 .7.2 1 .1.3.3.5.5.7.3.2.5.4.8.5.3.1.6.2 1 .3l1.4.4c.6.1.9.3 1 .4.2.1.3.3.3.6s-.1.5-.4.6c-.3.1-.5.3-1 .3-.3 0-.6 0-.9-.1-.3-.1-.5-.2-.6-.4l-.4-.4c-.2-.3-.3-.4-.5-.5-.2-.1-.3-.2-.5-.2-.3 0-.6.1-.7.3s-.3.4-.3.7c0 .6.3 1.1 1.1 1.5s1.7.6 2.7.6c.5 0 .9 0 1.3-.1s.8-.3 1.1-.5c.4-.2.6-.5.8-.9.4-.8.5-1.2.5-1.6zm3.3 2c0 1-.4 1.8-1.1 2.5-.7.7-1.5 1-2.5 1-.8 0-1.5-.3-2.2-.8-.5.1-.9.1-1.4.1-.9 0-1.7-.1-2.5-.5s-1.5-.8-2.1-1.4-1.1-1.3-1.4-2.1c-.4-.8-.5-1.6-.5-2.5 0-.5 0-.9.2-1.4-.5-.6-.8-1.3-.8-2.1 0-1 .4-1.8 1.1-2.5.7-.7 1.5-1.1 2.5-1.1.8 0 1.5.3 2.2.8.5-.1.9-.1 1.4-.1.9 0 1.7.1 2.5.5s1.5.8 2.1 1.4c.6.6 1.1 1.3 1.4 2.1.3.8.5 1.6.5 2.5 0 .5 0 .9-.2 1.4.6.7.8 1.4.8 2.2zM153.7 8.2c0 1.3-.3 2.5-.9 3.5-.5 1-1.3 1.8-2.4 2.4-1 .6-2.2.9-3.5.9-.9 0-1.9-.2-2.8-.6-.9-.4-1.6-.9-2.2-1.5s-1.1-1.3-1.5-2.2c-.4-.9-.5-1.8-.5-2.8 0-.9.2-1.9.5-2.8.4-.9.9-1.6 1.5-2.2.7-.6 1.4-1.1 2.3-1.5s1.8-.5 2.8-.5c1.8 0 3.4.6 4.7 1.8l-2 1.8c-.7-.7-1.6-1.1-2.8-1.1-.8 0-1.5.2-2.2.6-.6.4-1.2.9-1.6 1.6-.4.7-.6 1.5-.6 2.3s.2 1.6.6 2.2c.4.7.9 1.2 1.6 1.6.6.4 1.4.6 2.2.6.6 0 1-.1 1.5-.2.5-.2.8-.3 1.1-.5.3-.2.6-.5.8-.8.2-.3.4-.5.5-.8.1-.2.2-.5.2-.7h-4V7h6.6c.1.4.1.8.1 1.2zM133 1.2v2.2h-1.4c-.5 0-.8.1-1 .3-.2.2-.3.5-.3.9v1.6h2.5l-.4 2.5h-2.2V15h-2.5V8.7h-2.2V6.2h2.2V4.4c0-1 .3-1.8.9-2.4.6-.5 1.4-.8 2.4-.8.9-.1 1.5-.1 2 0zM109.4 7.5c0-.2-.1-.4-.3-.4l-4.6-2.7c-.2-.1-.4-.1-.6 0-.2.1-.3.2-.3.4v5.5c0 .2.1.4.3.5.1.1.2.1.3.1.1 0 .2-.1.3-.1l4.6-2.7c.2-.2.3-.4.3-.6zm4.6 0v1.3c0 .3-.1.7-.1 1.1-.1.5-.1.9-.2 1.3s-.3.8-.6 1c-.3.3-.7.4-1.1.5-1.3.2-3.3.3-6 .3s-4.7-.1-6-.2c-.4-.1-.8-.2-1.1-.5-.3-.3-.5-.7-.6-1-.1-.4-.2-.8-.2-1.3-.1-.5-.1-.9-.1-1.2V7.5 6.2c0-.3.1-.7.1-1.1.1-.5.1-.9.2-1.3s.3-.8.6-1.1c.3-.3.7-.4 1.1-.5 1.3-.2 3.3-.2 6-.2s4.7.1 6 .2c.4.1.8.2 1.1.5.3.3.5.7.6 1 .1.4.2.8.2 1.3.1.5.1.9.1 1.1v1.4zM86 1.1H85.2c-.5.1-.9.3-1.4.4-.2 0-.4.1-.5.2l-.1.1V2c0 .1 0 .2-.1.2v1.1c0 .1.1.3.2.3s.3-.2.4-.3c.3-.3.5-.6.9-.8.4-.2.9-.2 1.5-.2 1.4-.1 2.8.1 3.8 1.2l.4.4c.4.6.6 1.4.8 2.2 0 .3.1.7 0 1.1-.1.8-.5 1.4-.9 1.8l-.9.9c-.2.1-.4.2-.6.4-.2.2-.4.4-.5.6-.4.7-.4 1.5-.4 2.3v.4s0 .1.1.1c0 0 .2.1.3.1s.1-.1.1-.1c.1-.1 0-.3 0-.4 0-.3-.1-.5 0-.8 0-.5.2-1 .5-1.4.4-.4.8-.6 1.3-.9.8-.6 1.6-1.5 1.8-2.6.1-.3.2-.7.1-1.2 0-.5-.3-.9-.4-1.5-.5-1.4-1.4-2.7-2.7-3.4-.6-.2-1.2-.3-1.7-.4H86zm-.7 5.8c-.1 0-.3 0-.4.1-.1.1-.2.3-.3.5-.1.4 0 .8 0 1.2 0 .1.1.2.1.3 0 0 0 .1.1.1 0 0 .1.1.2 0 .2 0 .1-.4.1-.5 0-.3-.1-.7 0-1.1.1-.1.1-.3.3-.4.1 0 .3 0 .3.1.1.2.1.5.1.7V8.2c.1 0 .1-.1.2-.1 0 0 .3-.3.5-.4.1 0 .2-.1.3 0 .1.2 0 .3 0 .5.2.4.1.6-.1.8-.1.1-.3.3-.4.5 0 .1-.1.3 0 .4 0 .1.1.1.2.1s.1-.1.2-.1c.1-.1.1-.2.2-.3.2-.2.4-.4.5-.7.1-.3.3-.6.3-.9 0-.3-.1-.7-.4-.7h-.2-.2c-.1.1-.3.2-.4.3l-.3.3c0-.2 0-.4-.1-.6-.2-.3-.5-.4-.8-.4zm-1.5 3.3s-.1 0 0 0c-.3 0-.4.2-.4.5.1.3.3.5.5.7.6.5 1.4.7 2.2.7.3 0 .6 0 .9-.2.1-.1.3-.3.1-.4h-.4c-.2.1-.3.1-.4.1-.4.1-.9 0-1.3-.3-.3-.2-.5-.5-.7-.8-.2-.1-.3-.3-.5-.3zm-.3 1.6h-.1-.2c-.1.1 0 .3 0 .3.1.3.4.5.6.6.6.5 1.4.7 2.2.8h1c.2-.1.1-.5-.1-.6-.1-.1-.2 0-.3 0H86c-.5 0-1.2-.2-1.7-.4-.2-.1-.4-.3-.5-.4 0-.1-.1-.2-.3-.3.1 0 0 0 0 0zm0 1.4c-.1 0-.2.1-.3.1 0 .1-.1.1-.1.1-.1.3.3.6.4.8.3.1.6.3.9.4.7.3 1.5.4 2.3.2.2 0 .4-.2.6-.3.1-.1.2-.2 0-.3-.1 0-.2.1-.3.1-.2.1-.4.1-.6.2-.3 0-.5 0-.8-.1-.3 0-.5-.1-.7-.2-.2-.1-.4-.1-.5-.3 0 0-.1 0-.1-.1-.1-.1-.3-.3-.4-.5-.2-.1-.3-.1-.4-.1zM35 5.5v6.2c0 .3-.1.6-.4.9-.2.2-.5.4-.9.4H22.3c-.3 0-.6-.1-.9-.4-.2-.2-.4-.5-.4-.9V5.5c.2.3.5.5.8.7 1.9 1.3 3.2 2.2 3.9 2.7.3.2.5.4.7.5.2.1.4.2.7.4.4.1.7.2.9.2.3 0 .5-.1.9-.2.3-.1.6-.3.7-.4s.4-.3.7-.5c.9-.6 2.2-1.5 3.9-2.7.3-.2.6-.4.8-.7zm0-2.3c0 .4-.1.8-.4 1.2-.3.4-.6.7-.9 1-1.9 1.4-3.2 2.2-3.6 2.5-.1 0-.2.1-.3.2-.2.1-.3.2-.4.3-.1.1-.2.2-.4.3-.2.1-.3.2-.4.2-.3 0-.4.1-.6.1-.1 0-.2 0-.4-.1-.1 0-.3-.1-.4-.2-.2-.1-.3-.2-.4-.3-.1-.1-.3-.2-.4-.3-.2-.1-.3-.2-.4-.2-.5-.3-1.2-.8-2-1.4-.9-.6-1.4-1-1.6-1.1-.3-.2-.6-.5-.9-.9-.3-.4-.4-.7-.4-1.1 0-.4.1-.7.3-1 .2-.3.5-.4.9-.4h11.4c.3 0 .6.1.9.4.3.2.4.5.4.8zM16 6.9c0 1.1-.4 2-1.1 2.9-.7.9-1.7 1.6-2.9 2.1s-2.6.8-4 .8c-.4 0-.9 0-1.3-.1-1.2 1.1-2.6 1.8-4.1 2.2-.3.1-.6.2-1 .2-.1 0-.2 0-.3-.1-.1-.1-.1-.2-.2-.3v-.1-.1-.1l.1-.1.1-.1c0-.1.1-.1.1-.1s.1-.2.3-.3c.1-.2.2-.3.3-.3.1-.1.2-.2.3-.4.1-.2.2-.3.3-.5.1-.1.2-.3.2-.5.1-.1.2-.3.2-.6-.9-.5-1.7-1.2-2.2-2C.3 8.6 0 7.8 0 6.9c0-.8.2-1.5.6-2.3.4-.7 1-1.3 1.7-1.9.7-.5 1.6-.9 2.6-1.2 1-.3 2-.5 3.1-.5 1.5 0 2.8.3 4 .8 1.3.5 2.3 1.2 3 2.1.7.9 1 1.9 1 3z"/><g><path d="M51.4 19.9l-.1.1v.3h.4l.1-.2h-.1l-.1-.2v-.3l-.2.1-.1.1v.1h.1zm-.2.1v-.1l-.2-.1-.1.1-.1.2v.1h.1l.3-.2zm-3.6.6l-.2.1v.2h.1V20.6l.1.1v-.1zm-.6.2v.1-.1h.1-.1zm8 3c0-.2 0-.4-.1-.6 0-.7-.2-1.3-.5-1.9v-.2c-.3-.7-.7-1.4-1.3-2l-.3-.3c-1.3-1.1-3-1.8-4.8-1.8-1.8 0-3.5.7-4.7 1.8l-.8.8c-.9 1.3-1.5 2.8-1.5 4.4 0 3.8 3.1 7 6.9 7 2.7 0 5-1.5 6.2-3.8l.6-1.5c.1-.1.1-.3.1-.4 0-.4.1-.8.1-1.2.1-.2.1-.3.1-.3zM53.7 21c.1 0 .1.1.2.2h-.1l-.1-.2zm-1-1.2v-.2l.3.3-.1.2h-.4V20l.2-.2zm-8.4-.7H44.6v.2h-.3v-.2zm.4.4h-.3v-.1l.2-.1h.1v.2zm9.5 2.6h-.5l-.3-.2-.4.1v.2h-.1l-.1-.2-.5-.2v-.3l-.7.1-.2.1H51l-.3.2v.3l-.7.5v.4l-.1.1v.5l.6.7h.7l.1-.1h.2l.1.1h.4l-.1.5.5.8-.2.3v.2l.2.2v.5l.2.3v.4h.2C51.7 29 49.9 30 47.9 30c-3.5 0-6.4-2.8-6.4-6.4 0-.9.1-1.7.5-2.5v-.2l.2-.2c.1-.2.1-.3.2-.4v.1l.1.6-.2.2v.5l.2.1v.5l.2.4h.2v-.1l-.2-.3V22h.1v.3l.3.5-.1.2.2.3.6.2v-.1h.1v.2H44.2l.3.5h.5v.4l-.3.2v.5l.5.6v.2s.1.1.2.1l.3.2v1.1l.1.1-.1.5.2.3v.5l.3.5.3.3h.3l.1-.1-.2-.2v-.1l.1-.1v-.2h-.2l.4.2.1-.2v-.1l-.1-.1v-.1h.2l.3-.1.1-.2.4-.5v-.6l.1-.2h.4l.2-.2.1-.8.2-.3v-.2l-.2-.1-.1-.3h-.6l-.3-.1v-.3l-.1-.3h-.4l-.3-.5-.2-.1v.1h-.3l-.1-.2-.4-.1-.3.4-.5-.1-.2-.6h-.3l.1-.2-.1-.1-.5.3-.3-.1-.1-.2v-.3l.1-.3.3-.2h.7v.2l.4.2v-.4l.2-.2.3-.3v-.2l.3-.4.4-.2.2-.3.1.1h.1l.1-.1h-.1l-.1-.1v-.1h.2l.1.1h.2v-.1h.1v.1l-.1.1v.1l.3.1h.1v-.1l.3-.2.2-.1v-.3l-.2-.2v-.3l-.3.1h-.1l.1-.2-.5-.1-.2.2v.4h-.4l-.1.3h-.2V20H46l-.1-.1-.1-.2.6-.3.2-.1v.2h.1v-.1h.1v-.2h.2l.1-.1.4-.1.1.1-.5.3.6.1.1-.2h.2l.1-.2h-.2v-.2l-.5-.3-.4.1v.3h-.3l-.1-.2.2-.2h-.5l-.1.2.1.1v.1h-.2v.1h-.3v-.2h.2l.2-.2-.1-.1-.1.1h-.2l-.2-.3h-.3l-.4.3h.3v.1h-.1.3l.1.1h-.4v-.1l-.2-.1-.1-.1h-.3c1-.8 2.4-1.2 3.7-1.2 1.6 0 3.1.6 4.2 1.6v.2l-.4.2-.1.2v.1h.1l.1.2.2-.1v.3h-.5l-.2.3-.3.1v.2h.1v.1H51l-.3.2-.1.1.1.3.1.1h.5v-.1l.3-.4h.2l.2-.2v.2l.5.3v.1h-.2l.1.1.1.1.1-.1v-.2h.1l-.1-.1-.3-.2-.1-.3h.2l.1.1.2.2v.3l.2.3.1-.3.1-.1v.3l.2.2h.7c.1.1.2.2.2.4zm-9.3-2l.1-.1h.1v.2H45l-.1-.1zm.9.5l-.4.1-.1-.1v-.1l.1-.1h.2v.1l.2.1zm.2.2v.1h-.2v-.2l.2.1zm-.1-.1v-.1.1zm0 .3l-.1.2h-.1v-.1h.2zm-.6-.1l.1-.1h.2l-.2.3h-.1v-.2zm1 .1l-.2.1-.1-.1v-.1l.3.1zm-.2-.2h.1-.1zm8.2 1.7zM76.8 24.8l-.1-.2c-.2-.3-.3-.5-.6-.7-.2-.2-.5-.3-.7-.4.6-.3 1.1-.7 1.3-1.3.2-.5-.1-.8-.1-1.2v-.1c0-.4-.6-.7-1.1-.8-.3-.1-.7-.1-1-.1l-.7.2.2-.5c.2-.7.2-1.3-.2-1.8v-.1c-.3-.5-.8-.8-1.4-1-.6-.2-1.2-.1-1.7.2-.6.4-1.1.8-1.1 1.4l-.1.1-.1-.1-.2-.4c-.3-.5-.8-.8-1.3-1-.5-.1-.8-.1-1.2.2-.5.3-.7.7-.8 1.2-.1.6 0 1.1.3 1.7l.2.2-.5-.2c-.6-.2-1.2-.1-1.8.3-.6.3-1 .7-1.2 1.3-.2.6-.2 1.1.1 1.6.1.2.3.4.5.5.3.3.6.4.9.5h.2l-.3.3c-.3.3-.5.6-.6.9-.1.4-.1.7.2 1.1.1.2.2.3.4.4.2.2.4.3.6.3.5.1.9.1 1.4 0l-.3.5v.4c-.2.7-.2 1.2.2 1.8.2.2.3.4.5.6.3.2.6.4.9.5.6.2 1.2.2 1.8-.2.6-.3.9-.8 1.1-1.4v-.1c.4.4.8.7 1.2.8.4.1.8.1 1.2-.2.4-.2.6-.6.7-1 .1-.5.1-.9 0-1.4.2.2.4.3.7.3.7.2 1.2.2 1.8-.1.6-.3.9-.8 1.1-1.4s-.1-1.1-.4-1.6zm-3-3.4l.3-.1c.4-.2.7-.2 1.1-.2s.6.2.7.5l.1.3-.1.2c-.2.4-.5.7-1 .9-.2.1-.4.2-.7.2l-2.5.3v-.2l-.1-.1.1-.1 2.1-1.7zm-3.4-2.5c.1-.4.4-.7.8-.9s.8-.3 1.2-.1c.4.1.7.3.9.7.1.2.2.5.2.7l-.1.5-.3.6-1.8 2.2c-.2-.2-.4-.3-.6-.4l-.2-2.2v-1.1h-.1zM67 19c0-.4.2-.6.4-.8.1-.1.3-.1.5 0 .4.1.7.4.9.9.1.2.2.4.3.7l.4 2.4h-.3l-1.8-2-.1-.2c-.3-.3-.4-.6-.3-1zm-3 4.2c-.2-.3-.2-.6-.1-.9.2-.4.4-.7.8-.9.4-.2.7-.3 1.2-.2l.6.2 1.8 1.3c-.2.2-.3.4-.3.6l-3 .5h-.2c-.4-.1-.7-.3-.8-.6zm5.7 5.9l-.1.2c-.2.4-.4.7-.8.8-.4.2-.8.3-1.1.1-.4-.1-.7-.4-.9-.7-.1-.2-.2-.5-.2-.7l.1-.5.3-.6 1.7-2c.2.1.5.2.7.2.1.7.3 1.4.3 2.2v1zm-.8-4c-.3-.3-.4-.6-.4-1s.2-.7.4-1c.3-.2.6-.4 1-.4s.7.2.9.4c.3.3.4.6.4 1s-.1.7-.4 1c-.3.3-.6.4-.9.4s-.7-.1-1-.4zm3.8 3.5c-.1.4-.2.6-.4.7-.2.1-.3.1-.5.1-.4-.1-.7-.4-.9-.9l-.3-.7-.3-1.7.4-.1.3-.2.9.9.5.7.1.2c.1.3.2.6.2 1zm3.4-2.3c-.1.4-.4.7-.7.9-.4.2-.7.3-1.1.1-.3 0-.4-.2-.6-.3l-2.1-1.7.2-.3.1-.3 2.3-.2h1c.3.1.6.3.8.6.2.2.3.5.3.9l-.2.3zM253.7 26c1.6.7 3.2 2 3.9 3.5-.9.6-1 .7-2 1.5-1-1.7-2.1-2.7-3.7-3.1-1 1.1-2.5 2.4-4.9 3-.5-1-.7-1.3-1-2.1 1.9-.4 2.6-1 3.5-2.6-.1-2 .5-4 1.9-4.8.8.2 1.9.9 2.2 1-.1.2.1.4.7.5.4.1 1.5.2 2.5-.6.6.9 1.1 1.7 1.1 1.7s-1.9 1.8-4.2 1.3c.1.3 0 .4 0 .7zm.3-4.9c-1.2 0-2.1-.9-2.1-2s1-2 2.1-2c1.2 0 2.1.9 2.1 2 .1 1.1-.9 2-2.1 2zM237.6 21c-.4.1-4.2 3.6-4.5 4.5-.1.3 0 3.1.1 3.6.2.1 2 0 2.4.1l-.1.9h-3.9c-.7 0-2.8.1-3.4.1l.1-.9c.4 0 1.9.1 2.2-.4.1-.1.1-2.9.1-3.4-.1-.5-3.4-5.4-4.3-6.2H224V18h7.5v1.2h-2.2c1 1.8 2.5 3.9 3.1 4.9l3-3.3h-1.8l-.2-1.2h6.6l-.1.1-.5.8-.2.4H238c-.1 0-.3.1-.4.1zM219.7 18.7c-.5.7-1.1 1.3-1.8 1.8v.5c0 .9-.1 1.9-.4 2.8-.3.9-.7 1.8-1.3 2.7-.6.9-1.2 1.6-2 2.3-.8.7-1.7 1.2-2.8 1.6-1.1.4-2.3.6-3.5.6-2 0-3.8-.5-5.4-1.6h.9c1.6 0 3.1-.5 4.4-1.5-.8 0-1.4-.2-2.1-.7-.6-.5-1-1-1.2-1.7.2 0 .5.1.7.1.3 0 .6 0 .9-.1-.8-.2-1.5-.6-2-1.2s-.8-1.4-.8-2.2c.5.3 1 .4 1.6.4-.5-.3-.9-.7-1.1-1.3-.3-.5-.4-1.1-.4-1.7 0-.6.2-1.2.5-1.8.9 1.1 2 2 3.2 2.6 1.3.7 2.6 1 4.1 1.1-.1-.3-.1-.5-.1-.8 0-1 .3-1.8 1-2.5s1.5-1 2.5-1 1.9.4 2.6 1.1c.8-.2 1.5-.4 2.2-.9-.3.8-.8 1.5-1.6 1.9.6 0 1.3-.2 1.9-.5zM194.2 22.8c.6-.6 1.2-1.4 1.1-2.4 0-1.9-1.5-3.3-3.5-3.2-1.7.2-3 1.6-2.9 3.4.1.5.2.9.4 1.3.2.3.6.6.7.9-1.7.6-3.5 2.5-3.7 4.8-.1 1.1.5 1.4 1.2 1.7.4 1.3 2 1.5 3.8 1.6 2.3.1 4.9-.2 5.5-1.6.7-.1 1.1-.8 1.1-1.6.1-2.5-1.9-4.3-3.7-4.9zm-5.7-.4c-.2-.2-.5-.3-.8-.4.1-.2.3-.2.4-.5 0-.1-.1-.2-.1-.4-.1-.7-.1-1.5.1-2.1-.7-1.1-2.6-1.1-3.4-.2-.8.8-.7 2.5.2 3.3-1.2.3-2.4 1.7-2.5 3.3-.1.7.3 1.1.8 1.2.2.8 1.2 1 2.3 1.1-.1-2.7 1.4-4 3-5.3zM172.5 25.6c0-.3 0-.6-.2-.9-.1-.3-.3-.4-.5-.6-.2-.2-.4-.3-.7-.5-.3-.1-.5-.3-.8-.3-.3 0-.5-.2-.8-.2l-1-.2c-.2 0-.3 0-.4-.1-.1 0-.2 0-.3-.1-.1 0-.2-.1-.3-.2l-.2-.2V22c0-.5.5-.7 1.3-.7.3 0 .5 0 .7.1.2.1.4.2.5.3.1.1.3.2.4.3.1.1.3.2.3.3.2.1.3.1.5.1.3 0 .5-.1.7-.3.2-.2.3-.5.3-.7 0-.4-.2-.7-.5-.9-.4-.3-.8-.5-1.3-.6-.5-.2-1.1-.2-1.7-.2-.4 0-.8 0-1.2.1s-.8.3-1.1.5c-.4.2-.6.5-.8.8-.2.4-.3.8-.3 1.2 0 .4 0 .7.2 1 .1.3.3.5.5.7.3.2.5.4.8.5.3.1.6.2 1 .3l1.4.4c.6.1.9.3 1 .3.2.1.3.3.3.6s-.1.5-.4.6c-.3.1-.5.3-1 .3-.3 0-.6 0-.9-.1-.3-.1-.5-.2-.6-.4l-.4-.4c-.2-.3-.3-.3-.5-.4-.2-.1-.3-.2-.5-.2-.3 0-.6.1-.7.3s-.3.4-.3.7c0 .5.3 1.1 1.1 1.5s1.7.6 2.7.6c.5 0 .9 0 1.3-.1s.8-.3 1.1-.5c.4-.2.6-.5.8-.9.4-.7.5-1.1.5-1.5zm3.3 2c0 1-.4 1.8-1.1 2.5-.7.7-1.5 1-2.5 1-.8 0-1.5-.3-2.2-.8-.5.1-.9.1-1.4.1-.9 0-1.7-.1-2.5-.5-.8-.3-1.5-.8-2.1-1.4-.6-.5-1.1-1.3-1.4-2.1-.4-.8-.5-1.6-.5-2.5 0-.5 0-.9.2-1.4-.5-.6-.8-1.3-.8-2.1 0-1 .4-1.8 1.1-2.5.7-.7 1.5-1.1 2.5-1.1.8 0 1.5.3 2.2.8.5-.1.9-.1 1.4-.1.9 0 1.7.1 2.5.5.8.3 1.5.8 2.1 1.4.6.6 1.1 1.3 1.4 2.1.3.8.5 1.6.5 2.5 0 .5 0 .9-.2 1.4.6.7.8 1.4.8 2.2zM153.7 24.2c0 1.3-.3 2.5-.9 3.5s-1.3 1.8-2.4 2.4c-1 .6-2.2.9-3.5.9-.9 0-1.9-.2-2.8-.6-.9-.4-1.6-.9-2.2-1.5s-1.1-1.3-1.5-2.2c-.4-.9-.5-1.8-.5-2.8s.2-1.9.5-2.8c.4-.9.9-1.6 1.5-2.2.7-.6 1.4-1.1 2.3-1.5s1.8-.5 2.8-.5c1.8 0 3.4.6 4.7 1.8l-2 1.8c-.7-.7-1.6-1.1-2.8-1.1-.8 0-1.5.2-2.2.6-.6.4-1.2.9-1.6 1.6-.4.7-.6 1.5-.6 2.3 0 .8.2 1.6.6 2.2.4.7.9 1.2 1.6 1.6.6.4 1.4.6 2.2.6.6 0 1-.1 1.5-.2.5-.2.8-.3 1.1-.5.3-.2.6-.5.8-.8s.4-.5.5-.8c.1-.2.2-.5.2-.7h-4V23h6.6c.1.4.1.8.1 1.2zM133 17.2v2.2h-1.4c-.5 0-.8.1-1 .3-.2.2-.3.5-.3.9v1.6h2.5l-.4 2.5h-2.2V31h-2.5v-6.3h-2.2v-2.5h2.2v-1.8c0-1 .3-1.8.9-2.4.6-.5 1.4-.8 2.4-.8.9-.1 1.5-.1 2 0zM109.4 23.5c0-.2-.1-.4-.3-.4l-4.6-2.7c-.2-.1-.4-.1-.6 0-.2.1-.3.2-.3.4v5.5c0 .2.1.4.3.5.1.1.2.1.3.1.1 0 .2-.1.3-.1l4.6-2.7c.2-.2.3-.4.3-.6zm4.6 0v1.3c0 .3-.1.7-.1 1.1-.1.5-.1.9-.2 1.3s-.3.8-.6 1c-.3.3-.7.4-1.1.5-1.3.2-3.3.3-6 .3s-4.7-.1-6-.2c-.4-.1-.8-.2-1.1-.5-.3-.3-.5-.7-.6-1-.1-.4-.2-.8-.2-1.3-.1-.5-.1-.9-.1-1.2v-1.3-1.3c0-.3.1-.7.1-1.1.1-.5.1-.9.2-1.3s.3-.8.6-1.1c.3-.3.7-.4 1.1-.5 1.3-.2 3.3-.2 6-.2s4.7.1 6 .2c.4.1.8.2 1.1.5.3.3.5.7.6 1 .1.4.2.8.2 1.3.1.5.1.9.1 1.1v1.4zM86 17.1H85.2c-.5.1-.9.3-1.4.4-.2.1-.4.1-.5.2l-.1.1v.2c0 .1 0 .2-.1.2v1.1c0 .1.1.3.2.3s.3-.2.4-.3c.3-.3.5-.6.9-.8.4-.2.9-.2 1.5-.2 1.4-.1 2.8.1 3.8 1.2l.4.4c.4.6.6 1.4.8 2.2 0 .3.1.7 0 1.1-.2.6-.5 1.2-.9 1.7l-.9.9c-.2.2-.4.3-.6.4-.2.2-.4.4-.5.6-.4.7-.4 1.5-.4 2.3v.4s0 .1.1.1c0 0 .2.1.3.1s.1-.1.1-.2c.1-.1 0-.3 0-.4 0-.3-.1-.5 0-.8 0-.5.2-1 .5-1.4.4-.4.8-.6 1.3-.9.8-.6 1.6-1.5 1.8-2.6.1-.3.2-.7.1-1.2 0-.5-.3-.9-.4-1.5-.5-1.4-1.4-2.7-2.7-3.4-.6-.3-1.2-.3-1.7-.4h-.9c-.1.2-.2.2-.3.2zm-.7 5.9c-.1 0-.3 0-.4.1-.1.1-.2.3-.3.5-.1.4 0 .8 0 1.2 0 .1.1.3.1.3s0 .1.1.1c0 .1.1.1.2.1.2-.1.1-.4.1-.5 0-.3-.1-.7 0-1.1.1-.1.1-.3.3-.4.1 0 .3 0 .3.2.1.2.1.5.1.7V24.5c.1 0 .1-.2.2-.2 0 0 .3-.3.5-.4.1 0 .2-.1.3 0 .1.2 0 .3 0 .5-.1.2-.1.4-.3.6-.1.1-.3.3-.4.5 0 .1-.1.3 0 .4 0 .1.1.1.2.1s.1-.1.2-.1c.1-.1.1-.2.2-.3.2-.2.4-.4.5-.7.1-.3.3-.6.3-.9 0-.3-.1-.7-.4-.7h-.2-.2c-.1.1-.3.2-.4.3-.1 0-.1.1-.3.3 0-.2 0-.4-.1-.6 0-.2-.3-.4-.6-.3zm-1.5 3.3s-.1 0 0 0c-.3 0-.4.2-.4.5.1.3.3.5.5.7.6.5 1.4.7 2.2.7.3 0 .6 0 .9-.2.1-.1.3-.3.1-.4h-.4c-.2.1-.3.2-.4.2-.4.1-.9 0-1.3-.3-.3-.2-.5-.5-.7-.8-.2-.2-.3-.4-.5-.4zm-.3 1.5h-.1-.2c-.1.1 0 .3 0 .3.1.3.4.5.6.6.6.5 1.4.7 2.2.8h1c.2-.1.1-.5-.1-.6-.1-.1-.2 0-.3 0H86c-.5 0-1.2-.2-1.7-.4-.2-.1-.4-.3-.5-.4 0-.1-.1-.2-.3-.3.1 0 0 0 0 0zm0 1.4c-.1 0-.2.1-.3.1 0 .1-.1.1-.1.2-.1.3.3.6.4.8.3.1.6.3.9.4.7.3 1.5.4 2.3.2.2 0 .4-.2.6-.3.1-.1.2-.2 0-.3-.1 0-.2.1-.3.1-.2.1-.4.1-.6.2-.3 0-.5 0-.8-.1-.3 0-.5-.1-.7-.2-.2-.1-.4-.1-.5-.3 0 0-.1 0-.1-.1-.1-.1-.3-.3-.4-.5-.2-.2-.3-.2-.4-.2zM35 21.5v6.2c0 .3-.1.6-.4.9-.2.2-.5.4-.9.4H22.3c-.3 0-.6-.1-.9-.4-.2-.2-.4-.5-.4-.9v-6.2c.2.3.5.5.8.7 1.9 1.3 3.2 2.2 3.9 2.7.3.2.5.4.7.5.2.1.4.2.7.4.3.1.6.2.9.2.3 0 .5-.1.9-.2.3-.1.6-.3.7-.4s.4-.3.7-.5c.9-.6 2.2-1.5 3.9-2.7.3-.2.6-.4.8-.7zm0-2.2c0 .4-.1.8-.4 1.2-.3.4-.6.7-.9 1-1.9 1.4-3.2 2.2-3.6 2.5-.1 0-.2.1-.3.2-.2.1-.3.2-.4.3-.1.1-.2.2-.4.3-.2.1-.3.2-.4.2H28c-.1 0-.2 0-.4-.1-.1 0-.3-.1-.4-.2-.2-.1-.3-.2-.4-.3-.1-.1-.3-.2-.4-.3-.2-.1-.3-.1-.4-.2-.5-.3-1.2-.8-2-1.4-.9-.6-1.4-1-1.6-1.1-.3-.2-.6-.5-.9-.9s-.4-.7-.4-1.1c0-.4.1-.7.3-1 .2-.3.5-.4.9-.4h11.4c.3 0 .6.1.9.4.3.2.4.5.4.9zM16 22.9c0 1.1-.4 2-1.1 2.9-.7.9-1.7 1.6-2.9 2.1s-2.6.8-4 .8c-.4 0-.9 0-1.3-.1-1.2 1.1-2.6 1.8-4.1 2.2-.3.2-.6.2-1 .3-.1 0-.2 0-.3-.1-.1-.1-.1-.2-.2-.3v-.1-.1-.1l.1-.1.1-.1c0-.1.1-.1.1-.1s.1-.2.3-.3c.1-.2.2-.3.3-.3.1-.1.2-.2.3-.4.1-.2.2-.3.3-.5.1-.1.2-.3.2-.5.1-.2.2-.4.2-.6-.9-.5-1.7-1.2-2.2-2-.5-.8-.8-1.7-.8-2.6 0-.8.2-1.5.6-2.3.4-.7 1-1.3 1.7-1.9.7-.5 1.6-.9 2.6-1.2 1-.3 2-.5 3.1-.5 1.5 0 2.8.3 4 .8 1.2.5 2.2 1.2 2.9 2.1.8 1 1.1 1.9 1.1 3z"/></g></svg>