<?xml version="1.0" standalone="no"?>
<!DOCTYPE svg PUBLIC "-//W3C//DTD SVG 20010904//EN"
 "http://www.w3.org/TR/2001/REC-SVG-20010904/DTD/svg10.dtd">
<svg version="1.0" xmlns="http://www.w3.org/2000/svg"
 width="435.000000pt" height="116.000000pt" viewBox="0 0 435.000000 116.000000"
 preserveAspectRatio="xMidYMid meet">
<metadata>
Created by potrace 1.15, written by Peter Selinger 2001-2017
</metadata>
<g transform="translate(0.000000,116.000000) scale(0.100000,-0.100000)"
fill="#000000" stroke="none">
<path d="M1440 1134 c0 -6 9 -23 20 -37 11 -14 20 -27 20 -30 0 -3 18 -44 40
-91 44 -95 46 -103 25 -130 -8 -11 -15 -33 -15 -49 0 -15 -4 -26 -9 -23 -13 9
-23 -26 -11 -38 5 -5 10 -18 10 -29 0 -10 13 -49 29 -85 15 -37 31 -76 35 -87
6 -16 9 -17 17 -5 8 12 9 11 7 -5 -2 -10 -14 -22 -28 -26 -20 -6 141 -15 173
-10 12 2 8 -6 -10 -20 -15 -12 -16 -12 -8 1 8 13 7 13 -10 0 -17 -14 -17 -15
10 -18 15 -2 32 2 37 10 7 10 8 9 4 -4 -3 -10 1 -36 9 -58 9 -26 11 -42 4 -46
-14 -8 -321 3 -573 22 -109 7 -207 14 -218 14 -11 0 -22 9 -25 20 -3 11 -13
20 -22 21 -36 2 -87 -3 -101 -11 -9 -5 -19 -2 -27 8 -11 15 -12 15 -13 1 0 -9
-13 -33 -29 -53 -16 -20 -33 -50 -36 -66 -6 -29 -7 -29 -30 -14 -13 9 -30 12
-36 8 -8 -4 -9 -3 -5 4 5 8 0 12 -13 12 -37 0 -31 -18 11 -32 30 -9 49 -24 65
-48 72 -113 96 -125 226 -108 134 17 2253 17 2389 -1 91 -11 99 -11 136 8 22
11 49 36 61 54 25 40 28 110 6 147 -8 14 -23 42 -34 63 -10 22 -21 35 -24 30
-4 -6 -40 -9 -81 -8 -42 1 -73 -1 -71 -5 13 -21 -39 -30 -240 -44 -310 -21
-420 -25 -435 -16 -11 7 -11 14 -2 35 7 14 12 34 12 43 0 15 7 17 38 14 33 -4
35 -2 20 9 -15 12 -18 33 -19 139 -1 69 -1 138 0 153 l1 28 39 -22 c22 -12 63
-44 93 -70 29 -27 61 -52 71 -55 9 -3 15 -9 12 -13 -2 -5 9 -20 25 -35 17 -14
30 -23 30 -20 0 4 7 1 15 -6 8 -7 12 -17 8 -23 -3 -6 -1 -7 5 -3 7 4 19 -9 32
-34 11 -22 25 -40 31 -40 6 0 8 -4 4 -9 -3 -5 -1 -12 4 -16 12 -7 56 129 66
200 3 28 8 64 10 80 3 18 -4 8 -15 -25 l-20 -55 6 45 c17 122 -5 370 -38 420
-7 11 -8 10 -2 -5 3 -11 9 -57 12 -102 4 -76 3 -83 -14 -83 -33 0 -47 15 -36
37 8 15 10 64 3 115 -2 14 -28 -3 -38 -25 -6 -12 -29 -43 -51 -68 -23 -26 -38
-49 -35 -53 4 -3 18 8 32 25 l26 31 20 -23 c18 -21 18 -22 1 -9 -18 14 -18 13
-11 -10 11 -31 9 -189 -2 -249 l-8 -44 -102 82 c-162 130 -200 190 -163 261
11 23 11 24 -5 9 -9 -9 -19 -35 -22 -58 -5 -34 -1 -48 16 -72 16 -22 18 -29 7
-29 -8 0 -21 -3 -29 -6 -13 -5 -16 8 -19 75 -2 65 0 82 12 85 8 3 -2 3 -24 1
-21 -2 -40 -5 -41 -7 -2 -2 -4 -50 -6 -108 -1 -60 -7 -109 -13 -113 -8 -6 -7
-10 2 -14 6 -2 10 -8 7 -13 -3 -4 1 -10 8 -13 11 -4 13 18 11 111 -1 87 0 100
5 52 6 -59 7 -62 14 -30 3 19 8 46 10 60 3 14 5 -11 6 -56 0 -48 -4 -85 -10
-91 -13 -13 -5 -43 10 -43 6 0 7 8 4 18 -6 15 -5 15 10 3 23 -18 24 -86 2 -77
-9 3 -18 -1 -21 -9 -9 -21 -19 -19 -34 10 -20 37 -30 21 -32 -53 -1 -37 -5 23
-8 133 l-6 200 0 -233 c1 -127 -3 -232 -7 -232 -5 0 -5 -5 -1 -12 5 -7 2 -9
-7 -6 -8 3 -23 2 -34 -3 -15 -5 -8 -8 25 -8 45 -1 46 -2 62 -45 9 -24 14 -47
11 -50 -4 -3 -188 -6 -411 -6 l-404 0 6 23 c4 12 9 36 12 52 6 29 8 30 47 26
38 -3 40 -2 24 13 -25 25 -28 63 -25 286 l3 204 45 12 c42 11 38 12 -71 13
-64 1 -132 3 -150 6 l-34 6 33 -18 32 -17 2 -125 c0 -69 2 -159 2 -199 1 -41
-1 -75 -4 -77 -6 -4 -95 184 -185 390 -36 82 -76 161 -90 175 -14 13 -25 20
-25 14z m906 -825 c0 -10 -4 -17 -9 -16 -5 1 -11 -3 -14 -9 -6 -18 22 -24 59
-13 18 5 44 9 58 8 19 -1 16 -3 -13 -10 -21 -5 -62 -22 -92 -39 -65 -36 -86
-39 -30 -5 22 14 38 25 35 26 -3 0 -15 2 -27 5 -18 3 -23 -1 -23 -16 0 -11 -4
-20 -10 -20 -5 0 -10 14 -10 30 l0 30 -20 -20 c-11 -11 -25 -20 -31 -20 -5 0
-7 -5 -3 -12 4 -6 3 -8 -4 -5 -5 4 -18 4 -27 1 -13 -5 -14 -9 -3 -15 9 -6 5
-9 -12 -9 -14 1 -47 -2 -75 -5 -39 -5 -55 -3 -70 10 -16 13 -17 16 -3 11 10
-3 20 -1 23 4 3 4 -6 7 -20 5 -15 -1 -35 5 -47 15 -17 13 -19 20 -10 36 11 18
13 17 16 -16 1 -9 13 -15 36 -16 32 -2 33 -1 15 12 -12 9 -14 14 -5 14 9 0 5
9 -10 25 -19 20 -20 25 -7 25 32 0 65 -75 45 -105 -4 -6 6 -11 24 -12 20 0 26
2 17 7 -7 5 -16 7 -19 5 -4 -2 -7 2 -7 10 0 12 4 12 21 -1 27 -19 33 -18 39 5
5 20 -17 36 -34 25 -5 -3 -9 0 -9 7 0 7 10 9 24 7 15 -3 27 2 35 14 15 24 46
23 64 -3 13 -18 16 -19 24 -5 10 18 73 53 95 53 7 0 14 -8 14 -18z"/>
<path d="M2006 888 c-28 -29 -53 -51 -56 -51 -3 1 -6 -8 -7 -20 -3 -33 -8 -51
-16 -64 -4 -7 -8 -39 -10 -72 -2 -66 -6 -69 -18 -14 -6 28 -7 22 -3 -24 6 -72
22 -126 35 -117 5 3 6 -3 2 -12 -4 -11 -2 -15 6 -13 7 3 34 -16 59 -42 47 -46
120 -79 179 -79 29 0 30 16 2 25 -43 14 -108 85 -129 141 -67 180 32 344 201
332 48 -3 55 -2 41 9 -9 7 -26 13 -37 13 l-20 1 20 9 c17 7 17 9 3 9 -10 1
-18 6 -18 11 0 22 -142 1 -176 -26 -18 -14 -18 -15 6 -9 22 5 22 4 -5 -11 -39
-21 -86 -65 -80 -74 3 -4 -2 -13 -10 -20 -12 -10 -14 -8 -10 8 5 30 28 62 49
68 15 5 16 8 5 16 -10 6 -6 7 11 3 17 -4 21 -3 12 3 -11 7 -8 14 14 31 14 11
21 21 14 21 -7 0 -36 -23 -64 -52z"/>
<path d="M2466 853 c28 -28 51 -57 51 -66 0 -9 -3 -16 -6 -15 -21 2 -27 -7
-29 -45 -1 -41 -21 -93 -39 -106 -5 -3 -16 -31 -26 -61 -21 -67 -52 -104 -119
-140 l-52 -28 37 -7 c61 -12 121 3 171 41 58 44 92 102 107 184 10 56 9 74 -4
121 -17 57 -78 139 -121 160 -11 7 2 -11 30 -38z"/>
<path d="M1360 741 c0 -5 -12 -11 -27 -13 -22 -2 -34 -14 -55 -53 -15 -27 -29
-54 -30 -58 -2 -5 -16 -4 -30 2 -19 7 -29 7 -34 -1 -5 -7 -2 -8 7 -4 8 4 5 1
-5 -8 -10 -8 -22 -13 -27 -11 -4 3 -5 -3 -2 -14 3 -11 -6 -30 -22 -47 -15 -16
-23 -23 -19 -15 5 10 3 12 -6 6 -7 -4 -31 -14 -54 -21 -38 -12 -33 -13 82 -13
122 -1 123 -1 111 20 -9 17 -4 36 26 109 l37 88 49 7 c27 4 72 4 99 0 34 -5
50 -3 50 4 0 6 -7 11 -16 11 -8 0 -12 5 -9 10 4 6 -18 10 -59 10 -36 0 -66 -4
-66 -9z"/>
</g>
</svg>
