<?xml version="1.0" encoding="utf-8"?>
<!-- Generator: Adobe Illustrator 13.0.0, SVG Export Plug-In . SVG Version: 6.00 Build 14948)  -->
<!DOCTYPE svg PUBLIC "-//W3C//DTD SVG 1.1//EN" "http://www.w3.org/Graphics/SVG/1.1/DTD/svg11.dtd">
<svg version="1.1" id="Calque_1" xmlns="http://www.w3.org/2000/svg" xmlns:xlink="http://www.w3.org/1999/xlink" x="0px" y="0px"
	 width="235px" height="52px" viewBox="0 0 235 52" enable-background="new 0 0 235 52" xml:space="preserve">
<path fill="#FFFFFF" stroke="#000000" d="M28.9,20.4c0,3.1-2,4.7-6,4.7h-9v13.8H2V2h21c4,0,6,1.6,6,4.7v13.7H28.9z M16.9,11.3H14
	v4.6h2.9V11.3z M82.9,34.3c0,3.1-2,4.6-6,4.6h-15c-4,0-6-1.5-6-4.6V6.7c0-3.1,2-4.7,6-4.7h15c4,0,6,1.6,6,4.7V34.3z M70.9,11.3H68
	v18.5h2.9V11.3z"/>
<path fill="#FFFFFF" stroke="#000000" d="M88.9,2c-4,0-6,1.6-6,4.7v27.7c-0.1,3.1,1.9,4.6,6,4.6h9v2.3h-42v-17c0-1.8-1-3.1-3-3.9
	c2-0.7,3-2,3-3.9V6.7c0-3.1-2-4.7-6-4.7h-21v36.9h12V25.1h2.9v20.8c0,1.3,0.7,2.4,2.1,3.4c1.3,0.8,2.6,1.2,3.9,1.2h54.1
	c4,0,6-1.5,6-4.6V2H88.9z M43.9,15.8H41v-4.6h2.9V15.8z M97.8,29.8h-2.9V11.3h2.9V29.8z M115.9,38.9c-4,0-6-1.5-6-4.6V20.4
	c0-3,2-4.5,6-4.6h9v-4.6H122v2.3h-12V6.7c0-3.1,2-4.7,6-4.7h15c4,0,6,1.6,6,4.7V39L115.9,38.9L115.9,38.9z M124.9,25.1H122v4.7h2.9
	V25.1z M167,38.9V11.3h-3V39h-12V11.3h-3V39h-12V2h12v2.3c1.4-1.6,4.4-2.3,9-2.3c2.3,0,4.1,0.9,5.4,2.8c1.2-1.3,2.6-2.1,4.4-2.5
	c0.8-0.2,2.5-0.3,5.2-0.3c1.4,0,2.7,0.4,3.9,1.2c1.4,1,2.1,2.1,2.1,3.4v32.3H167L167,38.9z"/>
<path fill="#FFFFFF" stroke="#000000" d="M205.9,34.3c0,3.1-2,4.6-6,4.6h-15c-4,0-6-1.5-6-4.6V6.7c0-3.1,2-4.7,6-4.7h15
	c4,0,6,1.6,6,4.7v18.4H191v4.7h2.9v-2.3h12V34.3z M193.9,11.3H191v4.6h2.9V11.3z M221,38.9V25.1h-2.9v13.8h-12V2h21c4,0,6,1.6,6,4.7
	v10.2c0,1.6-1,2.7-3,3.6c2,0.9,3,2.1,3,3.6V39L221,38.9L221,38.9z M221,11.3h-2.9v4.6h2.9V11.3z"/>
<g>
	<path fill="#FFFFFF" d="M118.8,47.2c0,0.7-0.2,1.3-0.5,1.7s-0.8,0.6-1.3,0.6c-0.2,0-0.4,0-0.6-0.1s-0.3-0.1-0.5-0.2v1.8h-1.4v-6
		h1.4v0.5c0.2-0.2,0.4-0.3,0.6-0.4s0.4-0.2,0.7-0.2c0.5,0,0.9,0.2,1.2,0.6S118.8,46.6,118.8,47.2z M117.4,47.3
		c0-0.4-0.1-0.7-0.2-0.9s-0.3-0.3-0.6-0.3c-0.1,0-0.2,0-0.4,0.1s-0.2,0.1-0.4,0.2v2.2c0.1,0,0.2,0.1,0.2,0.1s0.2,0,0.3,0
		c0.3,0,0.6-0.1,0.7-0.3S117.4,47.7,117.4,47.3z"/>
	<path fill="#FFFFFF" d="M123.8,47.3c0,0.7-0.2,1.3-0.6,1.7s-1,0.6-1.7,0.6c-0.7,0-1.3-0.2-1.7-0.6s-0.6-1-0.6-1.7
		c0-0.7,0.2-1.3,0.6-1.7s1-0.6,1.7-0.6c0.7,0,1.3,0.2,1.7,0.6S123.8,46.6,123.8,47.3z M122.4,47.3c0-0.3,0-0.5-0.1-0.7
		s-0.1-0.3-0.2-0.4c-0.1-0.1-0.2-0.2-0.3-0.2s-0.2-0.1-0.3-0.1c-0.1,0-0.2,0-0.3,0.1s-0.2,0.1-0.3,0.2c-0.1,0.1-0.1,0.2-0.2,0.4
		s-0.1,0.4-0.1,0.7s0,0.5,0.1,0.7s0.1,0.3,0.2,0.4c0.1,0.1,0.2,0.2,0.3,0.2s0.2,0.1,0.4,0.1c0.1,0,0.2,0,0.3-0.1s0.2-0.1,0.3-0.2
		c0.1-0.1,0.1-0.2,0.2-0.4S122.4,47.6,122.4,47.3z"/>
	<path fill="#FFFFFF" d="M128.6,49.5h-1.4V49c-0.2,0.2-0.5,0.3-0.7,0.5s-0.4,0.2-0.7,0.2c-0.4,0-0.8-0.1-1-0.4s-0.4-0.7-0.4-1.2
		v-2.9h1.4v2.2c0,0.2,0,0.4,0,0.6s0,0.3,0.1,0.4c0,0.1,0.1,0.2,0.2,0.2s0.2,0.1,0.4,0.1c0.1,0,0.2,0,0.3-0.1s0.3-0.1,0.4-0.2v-3.1
		h1.4V49.5z"/>
	<path fill="#FFFFFF" d="M132.6,46.4h-0.1c-0.1,0-0.1,0-0.2,0s-0.2,0-0.3,0c-0.1,0-0.3,0-0.5,0.1s-0.3,0.1-0.5,0.1v2.9h-1.4v-4.4
		h1.4v0.6c0.1-0.1,0.1-0.1,0.3-0.2s0.2-0.2,0.3-0.2c0.1-0.1,0.2-0.1,0.3-0.2s0.3-0.1,0.4-0.1c0,0,0.1,0,0.1,0s0.1,0,0.1,0V46.4z"/>
	<path fill="#FFFFFF" d="M139.7,47.2c0,0.7-0.2,1.3-0.5,1.7s-0.8,0.6-1.3,0.6c-0.2,0-0.4,0-0.6-0.1s-0.3-0.1-0.5-0.2v1.8h-1.4v-6
		h1.4v0.5c0.2-0.2,0.4-0.3,0.6-0.4s0.4-0.2,0.7-0.2c0.5,0,0.9,0.2,1.2,0.6S139.7,46.6,139.7,47.2z M138.3,47.3
		c0-0.4-0.1-0.7-0.2-0.9s-0.3-0.3-0.6-0.3c-0.1,0-0.2,0-0.4,0.1s-0.2,0.1-0.4,0.2v2.2c0.1,0,0.2,0.1,0.2,0.1s0.2,0,0.3,0
		c0.3,0,0.6-0.1,0.7-0.3S138.3,47.7,138.3,47.3z"/>
	<path fill="#FFFFFF" d="M144.6,49.5h-1.4v-2.2c0-0.2,0-0.4,0-0.5s0-0.3-0.1-0.4c0-0.1-0.1-0.2-0.2-0.2s-0.2-0.1-0.4-0.1
		c-0.1,0-0.2,0-0.3,0.1s-0.2,0.1-0.4,0.2v3.1h-1.4v-6.1h1.4v2.2c0.2-0.2,0.4-0.3,0.7-0.4s0.4-0.2,0.7-0.2c0.4,0,0.8,0.1,1,0.4
		s0.4,0.7,0.4,1.2V49.5z"/>
	<path fill="#FFFFFF" d="M149.9,47.2c0,0.7-0.2,1.3-0.5,1.7s-0.8,0.6-1.3,0.6c-0.2,0-0.4,0-0.6-0.1s-0.3-0.1-0.5-0.2v1.8h-1.4v-6
		h1.4v0.5c0.2-0.2,0.4-0.3,0.6-0.4s0.4-0.2,0.7-0.2c0.5,0,0.9,0.2,1.2,0.6S149.9,46.6,149.9,47.2z M148.5,47.3
		c0-0.4-0.1-0.7-0.2-0.9s-0.3-0.3-0.6-0.3c-0.1,0-0.2,0-0.4,0.1s-0.2,0.1-0.4,0.2v2.2c0.1,0,0.2,0.1,0.2,0.1s0.2,0,0.3,0
		c0.3,0,0.6-0.1,0.7-0.3S148.5,47.7,148.5,47.3z"/>
	<path fill="#FFFFFF" d="M155.4,47.7c0,0.3-0.1,0.5-0.2,0.8s-0.3,0.4-0.4,0.5c-0.2,0.2-0.5,0.3-0.7,0.4s-0.6,0.1-1,0.1h-2.3v-5.8
		h2.1c0.4,0,0.8,0,1,0s0.4,0.1,0.6,0.2c0.2,0.1,0.4,0.3,0.5,0.4s0.2,0.4,0.2,0.6c0,0.3-0.1,0.5-0.2,0.8s-0.3,0.4-0.6,0.5v0
		c0.4,0.1,0.6,0.2,0.9,0.5S155.4,47.3,155.4,47.7z M153.5,45.3c0-0.1,0-0.2-0.1-0.3s-0.1-0.2-0.2-0.2c-0.1,0-0.2-0.1-0.3-0.1
		s-0.3,0-0.6,0h-0.1V46h0.2c0.3,0,0.4,0,0.5,0s0.2,0,0.3-0.1c0.1-0.1,0.2-0.1,0.2-0.2S153.5,45.5,153.5,45.3z M153.8,47.7
		c0-0.2,0-0.3-0.1-0.4s-0.2-0.2-0.3-0.2c-0.1,0-0.2-0.1-0.4-0.1s-0.4,0-0.6,0h-0.3v1.5h0.1c0.4,0,0.6,0,0.8,0s0.3,0,0.4-0.1
		c0.1-0.1,0.2-0.1,0.3-0.3S153.8,47.8,153.8,47.7z"/>
	<path fill="#FFFFFF" d="M160.8,47.7c0,0.3-0.1,0.5-0.2,0.8s-0.3,0.4-0.4,0.5c-0.2,0.2-0.5,0.3-0.7,0.4s-0.6,0.1-1,0.1h-2.3v-5.8
		h2.1c0.4,0,0.8,0,1,0s0.4,0.1,0.6,0.2c0.2,0.1,0.4,0.3,0.5,0.4s0.2,0.4,0.2,0.6c0,0.3-0.1,0.5-0.2,0.8s-0.3,0.4-0.6,0.5v0
		c0.4,0.1,0.6,0.2,0.9,0.5S160.8,47.3,160.8,47.7z M159,45.3c0-0.1,0-0.2-0.1-0.3s-0.1-0.2-0.2-0.2c-0.1,0-0.2-0.1-0.3-0.1
		s-0.3,0-0.6,0h-0.1V46h0.2c0.3,0,0.4,0,0.5,0s0.2,0,0.3-0.1c0.1-0.1,0.2-0.1,0.2-0.2S159,45.5,159,45.3z M159.3,47.7
		c0-0.2,0-0.3-0.1-0.4s-0.2-0.2-0.3-0.2c-0.1,0-0.2-0.1-0.4-0.1s-0.4,0-0.6,0h-0.3v1.5h0.1c0.4,0,0.6,0,0.8,0s0.3,0,0.4-0.1
		c0.1-0.1,0.2-0.1,0.3-0.3S159.3,47.8,159.3,47.7z"/>
	<path fill="#FFFFFF" d="M168.1,47.7c0,0.3-0.1,0.5-0.2,0.8s-0.3,0.4-0.5,0.6c-0.2,0.2-0.4,0.3-0.7,0.4s-0.6,0.1-1,0.1
		c-0.5,0-0.8,0-1.2-0.1s-0.6-0.2-0.8-0.3V48h0.1c0.2,0.1,0.5,0.3,0.8,0.4s0.5,0.1,0.8,0.1c0.1,0,0.3,0,0.5,0s0.3-0.1,0.4-0.2
		c0.1-0.1,0.2-0.1,0.2-0.2s0.1-0.2,0.1-0.4c0-0.2,0-0.3-0.1-0.4s-0.2-0.2-0.3-0.2c-0.1,0-0.3-0.1-0.4-0.1s-0.3,0-0.5,0h-0.3v-1h0.2
		c0.2,0,0.3,0,0.5,0s0.3,0,0.4-0.1c0.1,0,0.2-0.1,0.2-0.2s0.1-0.2,0.1-0.4c0-0.1,0-0.2-0.1-0.3s-0.1-0.1-0.2-0.2
		c-0.1,0-0.2-0.1-0.3-0.1s-0.2,0-0.3,0c-0.1,0-0.3,0-0.4,0.1s-0.3,0.1-0.4,0.1c-0.1,0-0.2,0.1-0.3,0.2s-0.2,0.1-0.3,0.2H164v-1.2
		c0.2-0.1,0.5-0.2,0.8-0.2s0.7-0.1,1-0.1c0.3,0,0.6,0,0.9,0.1s0.5,0.1,0.7,0.3c0.2,0.1,0.3,0.3,0.4,0.5s0.1,0.4,0.1,0.6
		c0,0.3-0.1,0.6-0.3,0.9s-0.4,0.4-0.8,0.5v0.1c0.1,0,0.3,0.1,0.4,0.1s0.3,0.1,0.4,0.2c0.1,0.1,0.2,0.2,0.3,0.4
		S168.1,47.5,168.1,47.7z"/>
	<path fill="#FFFFFF" d="M170.5,49.5h-1.4V48h1.4V49.5z"/>
	<path fill="#FFFFFF" d="M175.9,49.5h-4.3v-0.9c0.4-0.3,0.7-0.6,1-0.8s0.5-0.5,0.8-0.7c0.3-0.3,0.5-0.6,0.6-0.8s0.2-0.5,0.2-0.7
		c0-0.3-0.1-0.5-0.2-0.6s-0.4-0.2-0.7-0.2c-0.1,0-0.3,0-0.4,0.1s-0.3,0.1-0.4,0.1c-0.1,0.1-0.2,0.1-0.3,0.2s-0.2,0.1-0.2,0.1h-0.1
		v-1.3c0.2-0.1,0.4-0.2,0.8-0.2s0.7-0.1,1-0.1c0.7,0,1.2,0.2,1.6,0.5s0.5,0.7,0.5,1.3c0,0.3-0.1,0.7-0.2,1s-0.4,0.7-0.8,1.1
		c-0.2,0.2-0.5,0.4-0.7,0.6s-0.4,0.3-0.5,0.4h2.5V49.5z"/>
	<path fill="#FFFFFF" d="M178,49.5h-1.4V48h1.4V49.5z"/>
	<path fill="#FFFFFF" d="M183.5,48.1h-0.8v1.4h-1.4v-1.4h-2.6v-1.1l2.5-3.4h1.5v3.4h0.8V48.1z M181.3,47.1v-2l-1.5,2H181.3z"/>
</g>
</svg>
