<svg xmlns="http://www.w3.org/2000/svg" width="26" height="26"><path fill="#2C978B" d="M0 0h26v26H0z"/><path fill="#67BFB8" d="M1.1 1H25v23.9H1.1z"/><g><path fill="#FFF" d="M8.1 17.3v1.5c0 .1 0 .1-.1.2 0 0-.1.1-.2.1H6.3c-.1 0-.1 0-.2-.1 0 0-.1-.1-.1-.2v-1.5c0-.1 0-.1.1-.2 0 0 .1-.1.2-.1h1.5c.1 0 .1 0 .2.1s.1.1.1.2zm2.9-1v2.5c0 .1 0 .1-.1.2 0 0-.1.1-.2.1H9.3c-.1 0-.1 0-.2-.1 0 0-.1-.1-.1-.2v-2.5c0-.1 0-.1.1-.2 0 0 .1-.1.2-.1h1.5c.1 0 .1 0 .2.1v.2zm3-2v4.5c0 .1 0 .1-.1.2 0 0-.1.1-.2.1h-1.5c-.1 0-.1 0-.2-.1 0 0-.1-.1-.1-.2v-4.5c0-.1 0-.1.1-.2 0 0 .1-.1.2-.1h1.5c.1 0 .1 0 .2.1.1 0 .1.1.1.2zm3-3v7.5c0 .1 0 .1-.1.2 0 0-.1.1-.2.1h-1.5c-.1 0-.1 0-.2-.1 0 0-.1-.1-.1-.2v-7.5c0-.1 0-.1.1-.2 0 0 .1-.1.2-.1h1.5c.1 0 .1 0 .2.1s.1.1.1.2zm3-4v11.4c0 .1 0 .1-.1.2 0 0-.1.1-.2.1h-1.5c-.1 0-.1 0-.2-.1 0 0-.1-.1-.1-.2V7.3c0-.1 0-.1.1-.2 0 0 .1-.1.2-.1h1.5c.1 0 .1 0 .2.1s.1.1.1.2z"/></g></svg>