<svg xmlns="http://www.w3.org/2000/svg" width="26" height="26"><path fill="#2C978B" d="M0 0h26v26H0z"/><path fill="#67BFB8" d="M1.1 1H25v23.9H1.1z"/><g><path fill="#FFF" d="M14.5 17.6v-6.5h-2.9v6.5c0 .2.1.3.2.4.1.1.2.1.4.1h1.7c.2 0 .3 0 .4-.1.1-.1.2-.3.2-.4zm-4.2-7.7h1.8L11 8.4c-.2-.2-.4-.3-.6-.3-.2 0-.4.1-.6.3-.3.2-.4.4-.4.6 0 .2.1.4.3.6.2.2.4.3.6.3zm6.3-.9c0-.2-.1-.4-.3-.6-.2-.2-.4-.3-.6-.3-.3 0-.5.1-.6.3L14 9.9h1.8c.2 0 .4-.1.6-.3.1-.1.2-.3.2-.6zm3.4 2.4v2.9c0 .1 0 .2-.1.2-.1.1-.1.1-.2.1h-.9v3.8c0 .2-.1.4-.3.6-.2.2-.4.3-.6.3H8.1c-.2 0-.4-.1-.6-.3-.2-.2-.3-.4-.3-.6v-3.8h-.9c-.1 0-.2 0-.2-.1s-.1-.1-.1-.2v-2.9c0-.1 0-.2.1-.2.1-.1.1-.1.2-.1h4c-.6 0-1-.2-1.4-.6-.4-.4-.6-.9-.6-1.5s.2-1 .6-1.4.9-.6 1.4-.6c.6 0 1.2.2 1.5.7L13 9.2l1.2-1.5c.3-.5.9-.7 1.5-.7s1 .2 1.4.6c.4.4.6.9.6 1.4 0 .6-.2 1-.6 1.4-.4.4-.9.6-1.4.6h4c.1 0 .2 0 .2.1s.1.2.1.3z"/></g></svg>