<svg xmlns="http://www.w3.org/2000/svg" width="26" height="26"><path fill="#2C978B" d="M0 0h26v26H0z"/><path fill="#67BFB8" d="M1.1 1H25v23.9H1.1z"/><g fill="#FFF"><path d="M14.6 14.1c0 .2-.1.3-.2.5-.1.1-.3.2-.5.2s-.4-.1-.6-.3l-1.6-2.3h-.3v.8l1.7 2.8c0 .1.1.1.1.2s0 .2-.1.3c-.1.1-.2.1-.3.1h-1.3v1.9c0 .2-.1.4-.2.5-.2.2-.3.2-.5.2H9.6c-.2 0-.4-.1-.5-.2-.2-.2-.2-.3-.2-.5v-1.9H7.5c-.1 0-.2 0-.3-.1-.1-.1-.1-.2-.1-.3 0-.1 0-.2.1-.2L8.8 13v-.9h-.3L7 14.4c-.1.2-.3.3-.6.3-.2 0-.3-.1-.5-.2-.1-.1-.2-.3-.2-.5 0-.1 0-.3.1-.4L7.6 11c.3-.5.7-.7 1.2-.7h2.6c.5 0 .9.2 1.2.7l1.8 2.6c.1.2.2.3.2.5zm-2.9-5.5c0 .4-.2.8-.5 1.1-.3.3-.7.5-1.1.5-.4 0-.8-.1-1.1-.5-.2-.3-.4-.7-.4-1.1s.2-.8.5-1.1c.3-.3.6-.5 1.1-.5.4 0 .8.2 1.1.5.2.3.4.6.4 1.1z"/><path d="M20.4 11.6v2.8c0 .2-.1.3-.2.5-.1.1-.3.2-.5.2s-.3-.1-.5-.2c-.1-.1-.2-.3-.2-.5V12h-.4v6.2c0 .2-.1.4-.2.5-.1.3-.3.3-.5.3s-.4-.1-.5-.2c-.2-.2-.2-.3-.2-.5v-3.2h-.4v3.2c0 .2-.1.4-.2.5-.3.2-.5.2-.7.2-.2 0-.4-.1-.5-.2-.2-.2-.2-.3-.2-.5V12h-.4v2.4c0 .2-.1.3-.2.5-.1.1-.3.2-.5.2s-.3-.1-.5-.2c-.1-.1-.2-.3-.2-.5v-2.8c0-.4.1-.7.4-.9.3-.3.6-.4.9-.4h4.4c.4 0 .7.1.9.4.3.2.4.5.4.9zm-2-3.1c0 .4-.2.8-.4 1.1-.3.3-.7.4-1.1.4-.4 0-.8-.2-1.1-.4-.3-.3-.4-.7-.4-1.1 0-.4.1-.8.4-1.1.3-.2.7-.4 1.1-.4.4 0 .8.1 1.1.4.3.4.4.7.4 1.1z"/></g></svg>