<svg xmlns="http://www.w3.org/2000/svg" width="26" height="26"><path fill="#2C978B" d="M0 0h26v26H0z"/><path fill="#67BFB8" d="M1.1 1H25v23.9H1.1z"/><g><path fill="#FFF" d="M20 16.4V19H6v-2.6c.2 0 .5 0 .7-.1.2-.1.4-.1.5-.2.1-.1.2-.1.4-.3.2-.1.3-.2.4-.3.1 0 .3-.1.4-.1.2 0 .3 0 .4.1.1 0 .2.1.4.3.2.1.3.2.4.3.1.1.2.1.5.2.2.1.4.1.7.1.2 0 .5 0 .7-.1.2-.1.4-.1.5-.2.1-.1.2-.1.4-.3.1-.1.2-.1.3-.2.1 0 .1-.1.2-.1h.3c.2 0 .3 0 .4.1.1 0 .2.1.4.3.1.1.3.2.4.3.1.1.3.1.5.2s.4.1.7.1c.2 0 .5 0 .7-.1.2-.1.4-.1.5-.2.1-.1.2-.1.4-.3.2-.1.3-.2.4-.3.1 0 .3-.1.4-.1.2 0 .3 0 .4.1.1 0 .2.1.4.3.1.1.3.2.4.3.1.1.3.1.5.2h.3zm0-2.1v1.3c-.2 0-.3 0-.4-.1-.1 0-.2-.1-.4-.3-.2-.1-.3-.2-.4-.2-.1-.1-.2-.1-.5-.2-.2-.1-.4-.1-.7-.1-.2 0-.5 0-.7.1-.2.1-.4.1-.5.2-.1.1-.2.1-.4.3-.1.1-.2.1-.3.2-.1 0-.1.1-.2.1h-.3c-.2 0-.3 0-.4-.1-.1 0-.2-.1-.4-.3-.2-.1-.3-.2-.4-.3-.1-.1-.2-.1-.5-.2-.2-.1-.4-.1-.7-.1-.2 0-.5 0-.7.1-.2.1-.4.1-.5.2-.1.1-.2.1-.4.3-.1.1-.2.1-.3.2-.1 0-.1.1-.2.1h-.3c-.2 0-.3 0-.4-.1-.1 0-.2-.1-.4-.3-.1-.1-.3-.2-.4-.3-.1-.1-.3-.1-.5-.2s-.4-.1-.7-.1c-.2 0-.5 0-.7.1-.2.1-.4.1-.5.2.3.2.2.3 0 .4-.2.1-.3.2-.4.3-.1 0-.3.1-.4.1v-1.3c0-.4.1-.7.4-.9.3-.3.7-.4 1.1-.4H8v-3h2v3h2v-3h2v3h2v-3h2v3h.5c.4 0 .8.1 1.1.4.3.2.4.5.4.9zM10 8.5c0 .3-.1.6-.3.8-.2.2-.4.3-.7.3-.3 0-.5-.1-.7-.3-.2-.1-.3-.3-.3-.6 0-.1 0-.2.1-.3 0-.1.1-.2.2-.2 0-.1.1-.2.2-.2.1-.1.2-.1.2-.2.1-.1.1-.2.2-.3.1-.2.1-.3.1-.5.2 0 .4.2.6.5.3.3.4.7.4 1zm4 0c0 .3-.1.6-.3.8-.2.2-.4.3-.7.3-.3 0-.5-.1-.7-.3-.2-.1-.3-.3-.3-.6 0-.1 0-.2.1-.3 0-.1.1-.2.2-.2 0-.1.1-.2.2-.2.1-.1.2-.1.2-.2.1-.1.1-.2.2-.3.1-.2.1-.3.1-.5.2 0 .4.2.6.5.3.3.4.7.4 1zm4 0c0 .3-.1.6-.3.8-.2.2-.4.3-.7.3-.3 0-.5-.1-.7-.3-.2-.1-.3-.3-.3-.6 0-.1 0-.2.1-.3 0-.1.1-.2.2-.2 0-.1.1-.2.2-.2.1-.1.2-.1.2-.2.1-.1.1-.2.2-.3.1-.2.1-.3.1-.5.2 0 .4.2.6.5.3.3.4.7.4 1z"/></g></svg>