<svg xmlns="http://www.w3.org/2000/svg" width="26" height="26"><path fill="#2C978B" d="M0 0h26v26H0z"/><path fill="#67BFB8" d="M1.1 1H25v23.9H1.1z"/><g><path fill="#FFF" d="M15.4 13.1c0-.6-.2-1.2-.7-1.6-.5-.5-1-.7-1.6-.7s-1.2.2-1.6.7c-.5.5-.7 1-.7 1.6s.2 1.2.7 1.6c.5.5 1 .7 1.6.7s1.2-.2 1.6-.7c.4-.4.7-1 .7-1.6zm4.6-1v2c0 .1 0 .1-.1.2 0 .1-.1.1-.2.1l-1.7.3c-.1.3-.2.6-.4.8.2.3.5.7 1 1.3.1.1.1.1.1.2s0 .2-.1.2c-.2.2-.5.6-.9 1s-.7.6-.9.6c-.1 0-.2 0-.2-.1l-1.3-1c-.3.1-.5.3-.8.3-.1.8-.2 1.4-.3 1.7 0 .2-.2.3-.3.3h-2c-.1 0-.2 0-.2-.1-.1-.1-.1-.1-.1-.2l-.3-1.7c-.3-.1-.6-.2-.8-.3l-1.3 1c-.1.1-.1.1-.2.1s-.2 0-.2-.1c-.8-.7-1.3-1.2-1.5-1.5 0-.1-.1-.1-.1-.2s0-.1.1-.2.2-.3.5-.6c.2-.3.4-.5.5-.6-.2-.3-.3-.6-.4-.9l-1.7-.2c-.1 0-.1-.1-.2-.1 0-.1-.1-.1-.1-.2v-2c0-.1 0-.1.1-.2 0-.1.1-.1.2-.1l1.8-.4c.1-.3.2-.6.4-.8-.2-.3-.6-.8-1-1.3-.1-.1-.1-.2-.1-.3 0-.1 0-.1.1-.2.2-.2.5-.5.9-1 .4-.4.7-.6.8-.6.1 0 .2 0 .2.1l1.3 1c.3-.1.5-.3.8-.3.1-.8.2-1.4.3-1.7 0-.2.2-.3.3-.3h2c.1 0 .2 0 .2.1s.1.1.1.2l.3 1.6c.3.1.6.2.8.3l1.3-1c.1-.1.1-.1.2-.1s.2 0 .2.1c.8.7 1.3 1.2 1.5 1.5 0 0 .1.1.1.2s0 .1-.1.2-.2.3-.5.6c-.2.3-.4.5-.5.6.2.3.3.6.4.9l1.7.3c.1 0 .1.1.2.1.1.2.1.3.1.4z"/></g></svg>