<svg xmlns="http://www.w3.org/2000/svg" width="26" height="26"><path fill="#8D141A" d="M0 0h26v26H0z"/><path fill="#C03638" d="M1.1 1H25v23.9H1.1z"/><g><path fill="#FFF" d="M12.9 14.2l-3-3c-.1-.1-.2-.2-.3-.2-.1 0-.2 0-.2.1-.1.1-.1.1-.1.2s0 .2.1.2l3 3c.1.1.1.1.2.1s.2 0 .2-.1c.1-.1.1-.1.1-.2.1 0 0-.1 0-.1zm6.9-2.2c.1.1.2.3.2.4 0 .2-.1.3-.2.4l-2.9 2.9 2.9 3.6c0 .1.1.1.1.2s0 .1-.1.2-.3.1-.4 0L15.6 17l-2.7 2.7c-.1.1-.3.2-.4.2-.2 0-.3-.1-.4-.2-.6-.6-.9-1.2-1-2-.1-.8.1-1.4.5-1.9l-3.5-3.5c-.2.2-.5.4-.9.4-.3 0-.6-.1-.9-.4-.1-.1-.3-.4-.3-.7 0-.3.1-.6.4-.9l4.3-4.3c.2-.2.5-.4.9-.4.3 0 .6.1.9.4.2.2.4.5.4.9s-.1.6-.4.9l3.5 3.5c.4-.4 1.1-.6 1.9-.5.6-.1 1.3.2 1.9.8z"/></g></svg>