<svg xmlns="http://www.w3.org/2000/svg" width="26" height="26"><path fill="#1E4795" d="M0 0h26v26H0z"/><path fill="#466FB0" d="M1.1 1H25v23.9H1.1z"/><g><path fill="#FFF" d="M10.3 12.4h5.3v-1.9c0-.7-.3-1.3-.8-1.8S13.7 8 12.9 8s-1.4.2-1.9.7c-.5.5-.8 1.1-.8 1.8l.1 1.9zm8.7.9V19c0 .3-.1.5-.3.7-.2.2-.5.3-.7.3H8c-.3 0-.5-.1-.7-.3-.2-.2-.3-.4-.3-.7v-5.7c0-.3.1-.5.3-.7.2-.2.4-.3.7-.3h.3v-1.9c0-1.2.5-2.3 1.4-3.1.9-.8 2-1.3 3.3-1.3s2.4.4 3.3 1.3c.9.9 1.4 1.9 1.4 3.1v1.9h.3c.3 0 .5.1.7.3.2.2.3.5.3.7z"/></g></svg>