<svg xmlns="http://www.w3.org/2000/svg" width="26" height="26">
<path fill="#8D141A" d="M0 0h26v26H0z"/>
<path fill="#C03638" d="M1.1 1H25v23.9H1.1z"/>
<g id="b">
<path fill="#FFF" d="M20 17.5v1c0 .1 0 .3-.1.3-.1.1-.2.1-.4.1h-13c-.1 0-.3 0-.4-.1 0-.1-.1-.2-.1-.3v-1c0-.1 0-.3.1-.3.2-.2.3-.2.4-.2h13c.1 0 .3 0 .4.1.1.1.1.2.1.4zm-3-3v1c0 .1 0 .3-.1.3-.1.1-.2.1-.4.1h-10c-.1 0-.3 0-.4-.1 0-.1-.1-.2-.1-.3v-1c0-.1 0-.3.1-.3.2-.2.3-.2.4-.2h10c.1 0 .3 0 .4.1.1.1.1.3.1.4zm2-3v1c0 .1 0 .3-.1.3-.1.2-.2.2-.4.2h-12c-.1 0-.3 0-.4-.1 0-.1-.1-.3-.1-.4v-1c0-.1 0-.3.1-.3.2-.1.3-.2.4-.2h12c.1 0 .3 0 .4.1.1.2.1.3.1.4zm-3-3v1c0 .1 0 .3-.1.3-.1.2-.2.2-.4.2h-9c-.1 0-.3 0-.4-.1 0-.1-.1-.2-.1-.4v-1c0-.1 0-.3.1-.3.2-.1.3-.2.4-.2h9c.1 0 .3 0 .4.1.1.2.1.3.1.4z"/>
<animate href="#b" attributeName="opacity" attributeType="XML" values="1; 0" begin="0s" dur="1s" repeatCount="indefinite"/>
</g>
</svg>